<?xml version="1.0" encoding="utf-8"?>
<!-- Generator: Adobe Illustrator 16.0.0, SVG Export Plug-In . SVG Version: 6.00 Build 0)  -->
<!DOCTYPE svg PUBLIC "-//W3C//DTD SVG 1.1//EN" "http://www.w3.org/Graphics/SVG/1.1/DTD/svg11.dtd" [
	<!ENTITY ns_extend "http://ns.adobe.com/Extensibility/1.0/">
	<!ENTITY ns_ai "http://ns.adobe.com/AdobeIllustrator/10.0/">
	<!ENTITY ns_graphs "http://ns.adobe.com/Graphs/1.0/">
	<!ENTITY ns_vars "http://ns.adobe.com/Variables/1.0/">
	<!ENTITY ns_imrep "http://ns.adobe.com/ImageReplacement/1.0/">
	<!ENTITY ns_sfw "http://ns.adobe.com/SaveForWeb/1.0/">
	<!ENTITY ns_custom "http://ns.adobe.com/GenericCustomNamespace/1.0/">
	<!ENTITY ns_adobe_xpath "http://ns.adobe.com/XPath/1.0/">
]>
<svg version="1.1" id="Layer_1" xmlns:x="&ns_extend;" xmlns:i="&ns_ai;" xmlns:graph="&ns_graphs;"
	 xmlns="http://www.w3.org/2000/svg" xmlns:xlink="http://www.w3.org/1999/xlink" x="0px" y="0px" width="953.411px"
	 height="150.439px" viewBox="0 0 953.411 150.439" enable-background="new 0 0 953.411 150.439" xml:space="preserve">
<metadata>
	<sfw  xmlns="&ns_sfw;">
		<slices></slices>
		<sliceSourceBounds  bottomLeftOrigin="true" x="-171.206" y="321.279" width="953.411" height="150.44"></sliceSourceBounds>
	</sfw>
</metadata>
<path fill="#2B71B9" d="M20.505,146.583h41.62c9.745-49.538,31.266-88.315,65.374-116.129V3.654H0v29.643h84.052
	C50.756,66.795,30.047,102.933,20.505,146.583z"/>
<path fill="#2B71B9" d="M150.223,4.324v28.828h-16.039v25.784h16.039v61.11c0,19.49,11.369,26.393,36.341,26.393h22.942v-26.393
	h-14.212c-11.166,0-11.166-2.03-11.166-14.821v-46.29h25.378V33.153h-25.378V4.324H150.223z"/>
<path fill="#2B71B9" d="M216.806,146.583h33.905V92.579c0-19.49,12.181-31.062,31.671-31.062c19.288,0,23.754,10.151,23.754,32.078
	v52.989h33.905V86.285c0-14.415-0.406-25.377-6.497-34.515c-7.512-11.167-21.317-17.257-40.199-17.257
	c-16.851,0-30.859,6.293-42.635,19.084V0h-33.905L216.806,146.583L216.806,146.583z"/>
<path fill="#FFFFFF" d="M350.179,92.375c0,34.92,23.552,58.064,60.907,58.064c37.356,0,60.704-23.145,60.704-58.064
	s-23.348-58.064-60.704-58.064C373.73,34.311,350.179,57.456,350.179,92.375z M370.685,92.375c0-24.565,15.634-39.792,40.401-39.792
	c24.77,0,40.199,15.227,40.199,39.792s-15.43,39.59-40.199,39.59C386.318,131.965,370.685,116.941,370.685,92.375z"/>
<path fill="#FFFFFF" d="M482.944,146.583h19.693V91.36c0-24.159,17.055-39.589,40.197-39.589c19.49,0,25.988,9.745,25.988,31.671
	v63.141h19.691V84.255c0-16.242-0.607-27.611-8.525-36.748c-7.107-8.121-18.273-12.384-32.688-12.384
	c-19.49,0-33.703,7.918-44.869,21.521V37.965h-19.488V146.583L482.944,146.583z"/>
<path fill="#FFFFFF" d="M608.196,146.583h19.693V0h-19.693V146.583z"/>
<path fill="#FFFFFF" d="M649.202,146.583h19.693V37.965h-19.693V146.583z M668.897,23.754V0h-19.693v23.754H668.897z"/>
<path fill="#FFFFFF" d="M688.788,146.583h19.693V91.36c0-24.159,17.055-39.589,40.197-39.589c19.49,0,25.988,9.745,25.988,31.671
	v63.141h19.693V84.255c0-16.242-0.609-27.611-8.527-36.748c-7.107-8.121-18.271-12.384-32.688-12.384
	c-19.49,0-33.701,7.918-44.867,21.521V37.965h-19.49V146.583L688.788,146.583z"/>
<path fill="#FFFFFF" d="M827.44,96.233h98.264c0-1.218,0-2.639,0-3.856c0-36.139-22.129-58.064-59.283-58.064
	c-36.342,0-59.688,22.941-59.688,58.064c0,34.92,23.145,58.064,59.688,58.064c28.83,0,49.74-14.212,57.455-37.763h-22.941
	c-4.465,11.979-17.256,19.288-34.514,19.288c-23.145,0-38.979-14.415-38.979-34.92C827.44,96.842,827.44,96.436,827.44,96.233z
	 M828.049,82.225c3.248-18.475,17.662-29.642,38.371-29.642c20.912,0,35.123,11.37,38.168,29.642H828.049z"/>
<path fill="#999999" d="M931.729,119.724c-2.326,1.253-4.143,3.045-5.445,5.378c-1.305,2.332-1.957,4.765-1.957,7.295
	c0,2.506,0.643,4.915,1.928,7.229c1.285,2.312,3.08,4.107,5.387,5.387s4.719,1.918,7.236,1.918c2.52,0,4.932-0.639,7.238-1.918
	c2.307-1.278,4.098-3.074,5.377-5.387c1.279-2.313,1.918-4.723,1.918-7.229c0-2.53-0.65-4.963-1.947-7.295
	c-1.299-2.333-3.109-4.125-5.436-5.378c-2.326-1.252-4.709-1.879-7.15-1.879S934.053,118.472,931.729,119.724z M944.834,121.825
	c1.939,1.047,3.453,2.544,4.539,4.49c1.086,1.947,1.629,3.975,1.629,6.081c0,2.096-0.533,4.104-1.6,6.023
	c-1.068,1.921-2.564,3.418-4.492,4.491c-1.926,1.072-3.938,1.608-6.033,1.608c-2.094,0-4.104-0.537-6.033-1.608
	c-1.928-1.072-3.428-2.57-4.5-4.491c-1.07-1.921-1.607-3.929-1.607-6.023c0-2.106,0.545-4.134,1.637-6.081
	c1.092-1.945,2.605-3.442,4.539-4.49s3.922-1.571,5.965-1.571C940.909,120.254,942.893,120.778,944.834,121.825z M935.024,140.434
	v-6.648h1.484c0.887,0,1.561,0.18,2.023,0.54c0.668,0.488,1.549,1.702,2.641,3.643l1.387,2.467h3.084l-1.908-3.063
	c-0.912-1.452-1.684-2.486-2.312-3.104c-0.334-0.32-0.777-0.598-1.33-0.829c1.35-0.103,2.434-0.579,3.248-1.426
	c0.816-0.848,1.225-1.844,1.225-2.988c0-0.81-0.244-1.573-0.732-2.293c-0.488-0.719-1.143-1.224-1.965-1.513
	c-0.824-0.289-2.152-0.434-3.99-0.434H932.5v15.649L935.024,140.434L935.024,140.434z M935.024,126.904h2.873
	c1.232,0,2.078,0.091,2.533,0.271c0.457,0.18,0.812,0.453,1.07,0.819c0.258,0.365,0.385,0.78,0.385,1.243
	c0,0.721-0.266,1.299-0.799,1.734c-0.533,0.438-1.533,0.655-2.998,0.655h-3.064V126.904z"/>
</svg>
